<svg xmlns="http://www.w3.org/2000/svg" viewBox="0 0 27 19"><defs><style>.cls-1{fill:#9977a6;fill-rule:evenodd;}</style></defs><title>Ресурс 8</title><g id="Слой_2" data-name="Слой 2"><g id="контакты"><g id="mail"><path class="cls-1" d="M24.82,0H2.18A2.17,2.17,0,0,0,0,2.15V16.85A2.17,2.17,0,0,0,2.18,19H24.82A2.17,2.17,0,0,0,27,16.85V2.15A2.17,2.17,0,0,0,24.82,0Zm0,.86a1.28,1.28,0,0,1,.61.17L14.53,10.45a1.64,1.64,0,0,1-2.05,0L1.57,1A1.28,1.28,0,0,1,2.18.86Zm1.31,16a1.3,1.3,0,0,1-1.31,1.29H2.18A1.3,1.3,0,0,1,.87,16.85V2.15a1.27,1.27,0,0,1,.1-.5L9.83,9.3l-5,4.63a.43.43,0,0,0,0,.61.44.44,0,0,0,.32.14.43.43,0,0,0,.3-.12l5-4.65,0,0L11.9,11.1a2.52,2.52,0,0,0,3.2,0l1.42-1.23,0,0,5,4.65a.44.44,0,0,0,.62,0,.43.43,0,0,0,0-.61l-5-4.63L26,1.66a1.27,1.27,0,0,1,.1.49Z"/></g></g></g></svg>