<svg xmlns="http://www.w3.org/2000/svg" viewBox="0 0 25.03 25.03"><defs><style>.cls-1{fill:#5c2671;fill-rule:evenodd;}</style></defs><title>Ресурс 7</title><g id="Слой_2" data-name="Слой 2"><g id="контакты"><g id="phone"><path class="cls-1" d="M25,20.6a1.92,1.92,0,0,0-1-1.42l-6.17-3.55a1.94,1.94,0,0,0-2.33.31l-1.22,1.22a.89.89,0,0,1-1.19.07,35.15,35.15,0,0,1-2.81-2.52,35.16,35.16,0,0,1-2.52-2.81.89.89,0,0,1,.07-1.19L9.1,9.48a1.94,1.94,0,0,0,.31-2.33L5.85,1a1.93,1.93,0,0,0-3-.4L1,2.4C-.3,3.68-.33,6,.92,9a29.09,29.09,0,0,0,6.27,8.85A29.09,29.09,0,0,0,16,24.11a10.32,10.32,0,0,0,3.88.92,3.7,3.7,0,0,0,2.71-1l1.83-1.83A1.92,1.92,0,0,0,25,20.6ZM4.17.81h.15a1.12,1.12,0,0,1,.83.55L8.7,7.55A1.13,1.13,0,0,1,8.52,8.9l-.31.31L3.51,1A1.11,1.11,0,0,1,4.17.81ZM22.05,23.48c-1,1-3.09,1-5.7-.12a28.27,28.27,0,0,1-8.59-6.1,28.27,28.27,0,0,1-6.1-8.59C.57,6.07.53,4,1.55,3L2.91,1.61,7.62,9.8l-.32.32a1.7,1.7,0,0,0-.12,2.27,36,36,0,0,0,2.58,2.87,35.94,35.94,0,0,0,2.87,2.58,1.7,1.7,0,0,0,2.27-.12l.29-.29,8.22,4.69Zm1.94-2-8.21-4.68.33-.33a1.13,1.13,0,0,1,1.35-.18l6.17,3.55A1.12,1.12,0,0,1,24,21.52Z"/></g></g></g></svg>